<svg xmlns="http://www.w3.org/2000/svg" viewBox="0 0 486.00 300.00" width="486" height="300" role="img">
<title>Pure ether: period 7, displacement 0</title>
<rect x="0" y="0" width="486.00" height="300.00" fill="#f7f7f4"/>
<style>text{font-family:Arial,Helvetica,sans-serif;fill:#222}.small{font-size:11px;fill:#555}.axis{font-size:10px;fill:#666}.pix{fill:none;stroke:#111;stroke-width:1;shape-rendering:crispEdges}.mark{stroke:#c0392b;stroke-width:1.2;stroke-dasharray:4 3}.slice{stroke:#2c3e50;stroke-width:1;stroke-dasharray:3 3}</style>
<text x="24.00" y="26.00" font-size="18" font-weight="700">Pure ether: period 7, displacement 0</text>
<rect x="32.00" y="42.00" width="420.00" height="210.00" fill="#fff" stroke="#cfcfc8" stroke-width="1"/>
<g transform="translate(32.00 42.00) scale(3.00000 3.00000)" fill="#111">
<path class="pix" d="M0 0 h5 M8 0 h1 M11 0 h2 M14 0 h5 M22 0 h1 M25 0 h2 M28 0 h5 M36 0 h1 M39 0 h2 M42 0 h5 M50 0 h1 M53 0 h2 M56 0 h5 M64 0 h1 M67 0 h2 M70 0 h5 M78 0 h1 M81 0 h2 M84 0 h5 M92 0 h1 M95 0 h2 M98 0 h5 M106 0 h1 M109 0 h2 M112 0 h5 M120 0 h1 M123 0 h2 M126 0 h5 M134 0 h1 M137 0 h2 M0 1 h1 M4 1 h1 M7 1 h2 M10 1 h5 M18 1 h1 M21 1 h2 M24 1 h5 M32 1 h1 M35 1 h2 M38 1 h5 M46 1 h1 M49 1 h2 M52 1 h5 M60 1 h1 M63 1 h2 M66 1 h5 M74 1 h1 M77 1 h2 M80 1 h5 M88 1 h1 M91 1 h2 M94 1 h5 M102 1 h1 M105 1 h2 M108 1 h5 M116 1 h1 M119 1 h2 M122 1 h5 M130 1 h1 M133 1 h2 M136 1 h3 M0 2 h1 M3 2 h2 M6 2 h5 M14 2 h1 M17 2 h2 M20 2 h5 M28 2 h1 M31 2 h2 M34 2 h5 M42 2 h1 M45 2 h2 M48 2 h5 M56 2 h1 M59 2 h2 M62 2 h5 M70 2 h1 M73 2 h2 M76 2 h5 M84 2 h1 M87 2 h2 M90 2 h5 M98 2 h1 M101 2 h2 M104 2 h5 M112 2 h1 M115 2 h2 M118 2 h5 M126 2 h1 M129 2 h2 M132 2 h5 M138 2 h1 M0 3 h1 M2 3 h5 M10 3 h1 M13 3 h2 M16 3 h5 M24 3 h1 M27 3 h2 M30 3 h5 M38 3 h1 M41 3 h2 M44 3 h5 M52 3 h1 M55 3 h2 M58 3 h5 M66 3 h1 M69 3 h2 M72 3 h5 M80 3 h1 M83 3 h2 M86 3 h5 M94 3 h1 M97 3 h2 M100 3 h5 M108 3 h1 M111 3 h2 M114 3 h5 M122 3 h1 M125 3 h2 M128 3 h5 M136 3 h3 M0 4 h3 M6 4 h1 M9 4 h2 M12 4 h5 M20 4 h1 M23 4 h2 M26 4 h5 M34 4 h1 M37 4 h2 M40 4 h5 M48 4 h1 M51 4 h2 M54 4 h5 M62 4 h1 M65 4 h2 M68 4 h5 M76 4 h1 M79 4 h2 M82 4 h5 M90 4 h1 M93 4 h2 M96 4 h5 M104 4 h1 M107 4 h2 M110 4 h5 M118 4 h1 M121 4 h2 M124 4 h5 M132 4 h1 M135 4 h2 M138 4 h1 M0 5 h1 M2 5 h1 M5 5 h2 M8 5 h5 M16 5 h1 M19 5 h2 M22 5 h5 M30 5 h1 M33 5 h2 M36 5 h5 M44 5 h1 M47 5 h2 M50 5 h5 M58 5 h1 M61 5 h2 M64 5 h5 M72 5 h1 M75 5 h2 M78 5 h5 M86 5 h1 M89 5 h2 M92 5 h5 M100 5 h1 M103 5 h2 M106 5 h5 M114 5 h1 M117 5 h2 M120 5 h5 M128 5 h1 M131 5 h2 M134 5 h5 M0 6 h3 M4 6 h5 M12 6 h1 M15 6 h2 M18 6 h5 M26 6 h1 M29 6 h2 M32 6 h5 M40 6 h1 M43 6 h2 M46 6 h5 M54 6 h1 M57 6 h2 M60 6 h5 M68 6 h1 M71 6 h2 M74 6 h5 M82 6 h1 M85 6 h2 M88 6 h5 M96 6 h1 M99 6 h2 M102 6 h5 M110 6 h1 M113 6 h2 M116 6 h5 M124 6 h1 M127 6 h2 M130 6 h5 M138 6 h1 M0 7 h1 M2 7 h3 M8 7 h1 M11 7 h2 M14 7 h5 M22 7 h1 M25 7 h2 M28 7 h5 M36 7 h1 M39 7 h2 M42 7 h5 M50 7 h1 M53 7 h2 M56 7 h5 M64 7 h1 M67 7 h2 M70 7 h5 M78 7 h1 M81 7 h2 M84 7 h5 M92 7 h1 M95 7 h2 M98 7 h5 M106 7 h1 M109 7 h2 M112 7 h5 M120 7 h1 M123 7 h2 M126 7 h5 M134 7 h1 M137 7 h2 M0 8 h3 M4 8 h1 M7 8 h2 M10 8 h5 M18 8 h1 M21 8 h2 M24 8 h5 M32 8 h1 M35 8 h2 M38 8 h5 M46 8 h1 M49 8 h2 M52 8 h5 M60 8 h1 M63 8 h2 M66 8 h5 M74 8 h1 M77 8 h2 M80 8 h5 M88 8 h1 M91 8 h2 M94 8 h5 M102 8 h1 M105 8 h2 M108 8 h5 M116 8 h1 M119 8 h2 M122 8 h5 M130 8 h1 M133 8 h2 M136 8 h3 M0 9 h1 M2 9 h3 M6 9 h5 M14 9 h1 M17 9 h2 M20 9 h5 M28 9 h1 M31 9 h2 M34 9 h5 M42 9 h1 M45 9 h2 M48 9 h5 M56 9 h1 M59 9 h2 M62 9 h5 M70 9 h1 M73 9 h2 M76 9 h5 M84 9 h1 M87 9 h2 M90 9 h5 M98 9 h1 M101 9 h2 M104 9 h5 M112 9 h1 M115 9 h2 M118 9 h5 M126 9 h1 M129 9 h2 M132 9 h5 M138 9 h1 M0 10 h3 M4 10 h3 M10 10 h1 M13 10 h2 M16 10 h5 M24 10 h1 M27 10 h2 M30 10 h5 M38 10 h1 M41 10 h2 M44 10 h5 M52 10 h1 M55 10 h2 M58 10 h5 M66 10 h1 M69 10 h2 M72 10 h5 M80 10 h1 M83 10 h2 M86 10 h5 M94 10 h1 M97 10 h2 M100 10 h5 M108 10 h1 M111 10 h2 M114 10 h5 M122 10 h1 M125 10 h2 M128 10 h5 M136 10 h3 M0 11 h1 M2 11 h3 M6 11 h1 M9 11 h2 M12 11 h5 M20 11 h1 M23 11 h2 M26 11 h5 M34 11 h1 M37 11 h2 M40 11 h5 M48 11 h1 M51 11 h2 M54 11 h5 M62 11 h1 M65 11 h2 M68 11 h5 M76 11 h1 M79 11 h2 M82 11 h5 M90 11 h1 M93 11 h2 M96 11 h5 M104 11 h1 M107 11 h2 M110 11 h5 M118 11 h1 M121 11 h2 M124 11 h5 M132 11 h1 M135 11 h2 M138 11 h1 M0 12 h3 M4 12 h3 M8 12 h5 M16 12 h1 M19 12 h2 M22 12 h5 M30 12 h1 M33 12 h2 M36 12 h5 M44 12 h1 M47 12 h2 M50 12 h5 M58 12 h1 M61 12 h2 M64 12 h5 M72 12 h1 M75 12 h2 M78 12 h5 M86 12 h1 M89 12 h2 M92 12 h5 M100 12 h1 M103 12 h2 M106 12 h5 M114 12 h1 M117 12 h2 M120 12 h5 M128 12 h1 M131 12 h2 M134 12 h5 M0 13 h1 M2 13 h3 M6 13 h3 M12 13 h1 M15 13 h2 M18 13 h5 M26 13 h1 M29 13 h2 M32 13 h5 M40 13 h1 M43 13 h2 M46 13 h5 M54 13 h1 M57 13 h2 M60 13 h5 M68 13 h1 M71 13 h2 M74 13 h5 M82 13 h1 M85 13 h2 M88 13 h5 M96 13 h1 M99 13 h2 M102 13 h5 M110 13 h1 M113 13 h2 M116 13 h5 M124 13 h1 M127 13 h2 M130 13 h5 M138 13 h1 M0 14 h3 M4 14 h3 M8 14 h1 M11 14 h2 M14 14 h5 M22 14 h1 M25 14 h2 M28 14 h5 M36 14 h1 M39 14 h2 M42 14 h5 M50 14 h1 M53 14 h2 M56 14 h5 M64 14 h1 M67 14 h2 M70 14 h5 M78 14 h1 M81 14 h2 M84 14 h5 M92 14 h1 M95 14 h2 M98 14 h5 M106 14 h1 M109 14 h2 M112 14 h5 M120 14 h1 M123 14 h2 M126 14 h5 M134 14 h1 M137 14 h2 M0 15 h1 M2 15 h3 M6 15 h3 M10 15 h5 M18 15 h1 M21 15 h2 M24 15 h5 M32 15 h1 M35 15 h2 M38 15 h5 M46 15 h1 M49 15 h2 M52 15 h5 M60 15 h1 M63 15 h2 M66 15 h5 M74 15 h1 M77 15 h2 M80 15 h5 M88 15 h1 M91 15 h2 M94 15 h5 M102 15 h1 M105 15 h2 M108 15 h5 M116 15 h1 M119 15 h2 M122 15 h5 M130 15 h1 M133 15 h2 M136 15 h3 M0 16 h3 M4 16 h3 M8 16 h3 M14 16 h1 M17 16 h2 M20 16 h5 M28 16 h1 M31 16 h2 M34 16 h5 M42 16 h1 M45 16 h2 M48 16 h5 M56 16 h1 M59 16 h2 M62 16 h5 M70 16 h1 M73 16 h2 M76 16 h5 M84 16 h1 M87 16 h2 M90 16 h5 M98 16 h1 M101 16 h2 M104 16 h5 M112 16 h1 M115 16 h2 M118 16 h5 M126 16 h1 M129 16 h2 M132 16 h5 M138 16 h1 M0 17 h1 M2 17 h3 M6 17 h3 M10 17 h1 M13 17 h2 M16 17 h5 M24 17 h1 M27 17 h2 M30 17 h5 M38 17 h1 M41 17 h2 M44 17 h5 M52 17 h1 M55 17 h2 M58 17 h5 M66 17 h1 M69 17 h2 M72 17 h5 M80 17 h1 M83 17 h2 M86 17 h5 M94 17 h1 M97 17 h2 M100 17 h5 M108 17 h1 M111 17 h2 M114 17 h5 M122 17 h1 M125 17 h2 M128 17 h5 M136 17 h3 M0 18 h3 M4 18 h3 M8 18 h3 M12 18 h5 M20 18 h1 M23 18 h2 M26 18 h5 M34 18 h1 M37 18 h2 M40 18 h5 M48 18 h1 M51 18 h2 M54 18 h5 M62 18 h1 M65 18 h2 M68 18 h5 M76 18 h1 M79 18 h2 M82 18 h5 M90 18 h1 M93 18 h2 M96 18 h5 M104 18 h1 M107 18 h2 M110 18 h5 M118 18 h1 M121 18 h2 M124 18 h5 M132 18 h1 M135 18 h2 M138 18 h1 M0 19 h1 M2 19 h3 M6 19 h3 M10 19 h3 M16 19 h1 M19 19 h2 M22 19 h5 M30 19 h1 M33 19 h2 M36 19 h5 M44 19 h1 M47 19 h2 M50 19 h5 M58 19 h1 M61 19 h2 M64 19 h5 M72 19 h1 M75 19 h2 M78 19 h5 M86 19 h1 M89 19 h2 M92 19 h5 M100 19 h1 M103 19 h2 M106 19 h5 M114 19 h1 M117 19 h2 M120 19 h5 M128 19 h1 M131 19 h2 M134 19 h5 M0 20 h3 M4 20 h3 M8 20 h3 M12 20 h1 M15 20 h2 M18 20 h5 M26 20 h1 M29 20 h2 M32 20 h5 M40 20 h1 M43 20 h2 M46 20 h5 M54 20 h1 M57 20 h2 M60 20 h5 M68 20 h1 M71 20 h2 M74 20 h5 M82 20 h1 M85 20 h2 M88 20 h5 M96 20 h1 M99 20 h2 M102 20 h5 M110 20 h1 M113 20 h2 M116 20 h5 M124 20 h1 M127 20 h2 M130 20 h5 M138 20 h1 M0 21 h1 M2 21 h3 M6 21 h3 M10 21 h3 M14 21 h5 M22 21 h1 M25 21 h2 M28 21 h5 M36 21 h1 M39 21 h2 M42 21 h5 M50 21 h1 M53 21 h2 M56 21 h5 M64 21 h1 M67 21 h2 M70 21 h5 M78 21 h1 M81 21 h2 M84 21 h5 M92 21 h1 M95 21 h2 M98 21 h5 M106 21 h1 M109 21 h2 M112 21 h5 M120 21 h1 M123 21 h2 M126 21 h5 M134 21 h1 M137 21 h2 M0 22 h3 M4 22 h3 M8 22 h3 M12 22 h3 M18 22 h1 M21 22 h2 M24 22 h5 M32 22 h1 M35 22 h2 M38 22 h5 M46 22 h1 M49 22 h2 M52 22 h5 M60 22 h1 M63 22 h2 M66 22 h5 M74 22 h1 M77 22 h2 M80 22 h5 M88 22 h1 M91 22 h2 M94 22 h5 M102 22 h1 M105 22 h2 M108 22 h5 M116 22 h1 M119 22 h2 M122 22 h5 M130 22 h1 M133 22 h2 M136 22 h3 M0 23 h1 M2 23 h3 M6 23 h3 M10 23 h3 M14 23 h1 M17 23 h2 M20 23 h5 M28 23 h1 M31 23 h2 M34 23 h5 M42 23 h1 M45 23 h2 M48 23 h5 M56 23 h1 M59 23 h2 M62 23 h5 M70 23 h1 M73 23 h2 M76 23 h5 M84 23 h1 M87 23 h2 M90 23 h5 M98 23 h1 M101 23 h2 M104 23 h5 M112 23 h1 M115 23 h2 M118 23 h5 M126 23 h1 M129 23 h2 M132 23 h5 M138 23 h1 M0 24 h3 M4 24 h3 M8 24 h3 M12 24 h3 M16 24 h5 M24 24 h1 M27 24 h2 M30 24 h5 M38 24 h1 M41 24 h2 M44 24 h5 M52 24 h1 M55 24 h2 M58 24 h5 M66 24 h1 M69 24 h2 M72 24 h5 M80 24 h1 M83 24 h2 M86 24 h5 M94 24 h1 M97 24 h2 M100 24 h5 M108 24 h1 M111 24 h2 M114 24 h5 M122 24 h1 M125 24 h2 M128 24 h5 M136 24 h3 M0 25 h1 M2 25 h3 M6 25 h3 M10 25 h3 M14 25 h3 M20 25 h1 M23 25 h2 M26 25 h5 M34 25 h1 M37 25 h2 M40 25 h5 M48 25 h1 M51 25 h2 M54 25 h5 M62 25 h1 M65 25 h2 M68 25 h5 M76 25 h1 M79 25 h2 M82 25 h5 M90 25 h1 M93 25 h2 M96 25 h5 M104 25 h1 M107 25 h2 M110 25 h5 M118 25 h1 M121 25 h2 M124 25 h5 M132 25 h1 M135 25 h2 M138 25 h1 M0 26 h3 M4 26 h3 M8 26 h3 M12 26 h3 M16 26 h1 M19 26 h2 M22 26 h5 M30 26 h1 M33 26 h2 M36 26 h5 M44 26 h1 M47 26 h2 M50 26 h5 M58 26 h1 M61 26 h2 M64 26 h5 M72 26 h1 M75 26 h2 M78 26 h5 M86 26 h1 M89 26 h2 M92 26 h5 M100 26 h1 M103 26 h2 M106 26 h5 M114 26 h1 M117 26 h2 M120 26 h5 M128 26 h1 M131 26 h2 M134 26 h5 M0 27 h1 M2 27 h3 M6 27 h3 M10 27 h3 M14 27 h3 M18 27 h5 M26 27 h1 M29 27 h2 M32 27 h5 M40 27 h1 M43 27 h2 M46 27 h5 M54 27 h1 M57 27 h2 M60 27 h5 M68 27 h1 M71 27 h2 M74 27 h5 M82 27 h1 M85 27 h2 M88 27 h5 M96 27 h1 M99 27 h2 M102 27 h5 M110 27 h1 M113 27 h2 M116 27 h5 M124 27 h1 M127 27 h2 M130 27 h5 M138 27 h1 M0 28 h3 M4 28 h3 M8 28 h3 M12 28 h3 M16 28 h3 M22 28 h1 M25 28 h2 M28 28 h5 M36 28 h1 M39 28 h2 M42 28 h5 M50 28 h1 M53 28 h2 M56 28 h5 M64 28 h1 M67 28 h2 M70 28 h5 M78 28 h1 M81 28 h2 M84 28 h5 M92 28 h1 M95 28 h2 M98 28 h5 M106 28 h1 M109 28 h2 M112 28 h5 M120 28 h1 M123 28 h2 M126 28 h5 M134 28 h1 M137 28 h2 M0 29 h1 M2 29 h3 M6 29 h3 M10 29 h3 M14 29 h3 M18 29 h1 M21 29 h2 M24 29 h5 M32 29 h1 M35 29 h2 M38 29 h5 M46 29 h1 M49 29 h2 M52 29 h5 M60 29 h1 M63 29 h2 M66 29 h5 M74 29 h1 M77 29 h2 M80 29 h5 M88 29 h1 M91 29 h2 M94 29 h5 M102 29 h1 M105 29 h2 M108 29 h5 M116 29 h1 M119 29 h2 M122 29 h5 M130 29 h1 M133 29 h2 M136 29 h3 M0 30 h3 M4 30 h3 M8 30 h3 M12 30 h3 M16 30 h3 M20 30 h5 M28 30 h1 M31 30 h2 M34 30 h5 M42 30 h1 M45 30 h2 M48 30 h5 M56 30 h1 M59 30 h2 M62 30 h5 M70 30 h1 M73 30 h2 M76 30 h5 M84 30 h1 M87 30 h2 M90 30 h5 M98 30 h1 M101 30 h2 M104 30 h5 M112 30 h1 M115 30 h2 M118 30 h5 M126 30 h1 M129 30 h2 M132 30 h5 M138 30 h1 M0 31 h1 M2 31 h3 M6 31 h3 M10 31 h3 M14 31 h3 M18 31 h3 M24 31 h1 M27 31 h2 M30 31 h5 M38 31 h1 M41 31 h2 M44 31 h5 M52 31 h1 M55 31 h2 M58 31 h5 M66 31 h1 M69 31 h2 M72 31 h5 M80 31 h1 M83 31 h2 M86 31 h5 M94 31 h1 M97 31 h2 M100 31 h5 M108 31 h1 M111 31 h2 M114 31 h5 M122 31 h1 M125 31 h2 M128 31 h5 M136 31 h3 M0 32 h3 M4 32 h3 M8 32 h3 M12 32 h3 M16 32 h3 M20 32 h1 M23 32 h2 M26 32 h5 M34 32 h1 M37 32 h2 M40 32 h5 M48 32 h1 M51 32 h2 M54 32 h5 M62 32 h1 M65 32 h2 M68 32 h5 M76 32 h1 M79 32 h2 M82 32 h5 M90 32 h1 M93 32 h2 M96 32 h5 M104 32 h1 M107 32 h2 M110 32 h5 M118 32 h1 M121 32 h2 M124 32 h5 M132 32 h1 M135 32 h2 M138 32 h1 M0 33 h1 M2 33 h3 M6 33 h3 M10 33 h3 M14 33 h3 M18 33 h3 M22 33 h5 M30 33 h1 M33 33 h2 M36 33 h5 M44 33 h1 M47 33 h2 M50 33 h5 M58 33 h1 M61 33 h2 M64 33 h5 M72 33 h1 M75 33 h2 M78 33 h5 M86 33 h1 M89 33 h2 M92 33 h5 M100 33 h1 M103 33 h2 M106 33 h5 M114 33 h1 M117 33 h2 M120 33 h5 M128 33 h1 M131 33 h2 M134 33 h5 M0 34 h3 M4 34 h3 M8 34 h3 M12 34 h3 M16 34 h3 M20 34 h3 M26 34 h1 M29 34 h2 M32 34 h5 M40 34 h1 M43 34 h2 M46 34 h5 M54 34 h1 M57 34 h2 M60 34 h5 M68 34 h1 M71 34 h2 M74 34 h5 M82 34 h1 M85 34 h2 M88 34 h5 M96 34 h1 M99 34 h2 M102 34 h5 M110 34 h1 M113 34 h2 M116 34 h5 M124 34 h1 M127 34 h2 M130 34 h5 M138 34 h1 M0 35 h1 M2 35 h3 M6 35 h3 M10 35 h3 M14 35 h3 M18 35 h3 M22 35 h1 M25 35 h2 M28 35 h5 M36 35 h1 M39 35 h2 M42 35 h5 M50 35 h1 M53 35 h2 M56 35 h5 M64 35 h1 M67 35 h2 M70 35 h5 M78 35 h1 M81 35 h2 M84 35 h5 M92 35 h1 M95 35 h2 M98 35 h5 M106 35 h1 M109 35 h2 M112 35 h5 M120 35 h1 M123 35 h2 M126 35 h5 M134 35 h1 M137 35 h2 M0 36 h3 M4 36 h3 M8 36 h3 M12 36 h3 M16 36 h3 M20 36 h3 M24 36 h5 M32 36 h1 M35 36 h2 M38 36 h5 M46 36 h1 M49 36 h2 M52 36 h5 M60 36 h1 M63 36 h2 M66 36 h5 M74 36 h1 M77 36 h2 M80 36 h5 M88 36 h1 M91 36 h2 M94 36 h5 M102 36 h1 M105 36 h2 M108 36 h5 M116 36 h1 M119 36 h2 M122 36 h5 M130 36 h1 M133 36 h2 M136 36 h3 M0 37 h1 M2 37 h3 M6 37 h3 M10 37 h3 M14 37 h3 M18 37 h3 M22 37 h3 M28 37 h1 M31 37 h2 M34 37 h5 M42 37 h1 M45 37 h2 M48 37 h5 M56 37 h1 M59 37 h2 M62 37 h5 M70 37 h1 M73 37 h2 M76 37 h5 M84 37 h1 M87 37 h2 M90 37 h5 M98 37 h1 M101 37 h2 M104 37 h5 M112 37 h1 M115 37 h2 M118 37 h5 M126 37 h1 M129 37 h2 M132 37 h5 M138 37 h1 M0 38 h3 M4 38 h3 M8 38 h3 M12 38 h3 M16 38 h3 M20 38 h3 M24 38 h1 M27 38 h2 M30 38 h5 M38 38 h1 M41 38 h2 M44 38 h5 M52 38 h1 M55 38 h2 M58 38 h5 M66 38 h1 M69 38 h2 M72 38 h5 M80 38 h1 M83 38 h2 M86 38 h5 M94 38 h1 M97 38 h2 M100 38 h5 M108 38 h1 M111 38 h2 M114 38 h5 M122 38 h1 M125 38 h2 M128 38 h5 M136 38 h3 M0 39 h1 M2 39 h3 M6 39 h3 M10 39 h3 M14 39 h3 M18 39 h3 M22 39 h3 M26 39 h5 M34 39 h1 M37 39 h2 M40 39 h5 M48 39 h1 M51 39 h2 M54 39 h5 M62 39 h1 M65 39 h2 M68 39 h5 M76 39 h1 M79 39 h2 M82 39 h5 M90 39 h1 M93 39 h2 M96 39 h5 M104 39 h1 M107 39 h2 M110 39 h5 M118 39 h1 M121 39 h2 M124 39 h5 M132 39 h1 M135 39 h2 M138 39 h1 M0 40 h3 M4 40 h3 M8 40 h3 M12 40 h3 M16 40 h3 M20 40 h3 M24 40 h3 M30 40 h1 M33 40 h2 M36 40 h5 M44 40 h1 M47 40 h2 M50 40 h5 M58 40 h1 M61 40 h2 M64 40 h5 M72 40 h1 M75 40 h2 M78 40 h5 M86 40 h1 M89 40 h2 M92 40 h5 M100 40 h1 M103 40 h2 M106 40 h5 M114 40 h1 M117 40 h2 M120 40 h5 M128 40 h1 M131 40 h2 M134 40 h5 M0 41 h1 M2 41 h3 M6 41 h3 M10 41 h3 M14 41 h3 M18 41 h3 M22 41 h3 M26 41 h1 M29 41 h2 M32 41 h5 M40 41 h1 M43 41 h2 M46 41 h5 M54 41 h1 M57 41 h2 M60 41 h5 M68 41 h1 M71 41 h2 M74 41 h5 M82 41 h1 M85 41 h2 M88 41 h5 M96 41 h1 M99 41 h2 M102 41 h5 M110 41 h1 M113 41 h2 M116 41 h5 M124 41 h1 M127 41 h2 M130 41 h5 M138 41 h1 M0 42 h3 M4 42 h3 M8 42 h3 M12 42 h3 M16 42 h3 M20 42 h3 M24 42 h3 M28 42 h5 M36 42 h1 M39 42 h2 M42 42 h5 M50 42 h1 M53 42 h2 M56 42 h5 M64 42 h1 M67 42 h2 M70 42 h5 M78 42 h1 M81 42 h2 M84 42 h5 M92 42 h1 M95 42 h2 M98 42 h5 M106 42 h1 M109 42 h2 M112 42 h5 M120 42 h1 M123 42 h2 M126 42 h5 M134 42 h1 M137 42 h2 M0 43 h1 M2 43 h3 M6 43 h3 M10 43 h3 M14 43 h3 M18 43 h3 M22 43 h3 M26 43 h3 M32 43 h1 M35 43 h2 M38 43 h5 M46 43 h1 M49 43 h2 M52 43 h5 M60 43 h1 M63 43 h2 M66 43 h5 M74 43 h1 M77 43 h2 M80 43 h5 M88 43 h1 M91 43 h2 M94 43 h5 M102 43 h1 M105 43 h2 M108 43 h5 M116 43 h1 M119 43 h2 M122 43 h5 M130 43 h1 M133 43 h2 M136 43 h3 M0 44 h3 M4 44 h3 M8 44 h3 M12 44 h3 M16 44 h3 M20 44 h3 M24 44 h3 M28 44 h1 M31 44 h2 M34 44 h5 M42 44 h1 M45 44 h2 M48 44 h5 M56 44 h1 M59 44 h2 M62 44 h5 M70 44 h1 M73 44 h2 M76 44 h5 M84 44 h1 M87 44 h2 M90 44 h5 M98 44 h1 M101 44 h2 M104 44 h5 M112 44 h1 M115 44 h2 M118 44 h5 M126 44 h1 M129 44 h2 M132 44 h5 M138 44 h1 M0 45 h1 M2 45 h3 M6 45 h3 M10 45 h3 M14 45 h3 M18 45 h3 M22 45 h3 M26 45 h3 M30 45 h5 M38 45 h1 M41 45 h2 M44 45 h5 M52 45 h1 M55 45 h2 M58 45 h5 M66 45 h1 M69 45 h2 M72 45 h5 M80 45 h1 M83 45 h2 M86 45 h5 M94 45 h1 M97 45 h2 M100 45 h5 M108 45 h1 M111 45 h2 M114 45 h5 M122 45 h1 M125 45 h2 M128 45 h5 M136 45 h3 M0 46 h3 M4 46 h3 M8 46 h3 M12 46 h3 M16 46 h3 M20 46 h3 M24 46 h3 M28 46 h3 M34 46 h1 M37 46 h2 M40 46 h5 M48 46 h1 M51 46 h2 M54 46 h5 M62 46 h1 M65 46 h2 M68 46 h5 M76 46 h1 M79 46 h2 M82 46 h5 M90 46 h1 M93 46 h2 M96 46 h5 M104 46 h1 M107 46 h2 M110 46 h5 M118 46 h1 M121 46 h2 M124 46 h5 M132 46 h1 M135 46 h2 M138 46 h1 M0 47 h1 M2 47 h3 M6 47 h3 M10 47 h3 M14 47 h3 M18 47 h3 M22 47 h3 M26 47 h3 M30 47 h1 M33 47 h2 M36 47 h5 M44 47 h1 M47 47 h2 M50 47 h5 M58 47 h1 M61 47 h2 M64 47 h5 M72 47 h1 M75 47 h2 M78 47 h5 M86 47 h1 M89 47 h2 M92 47 h5 M100 47 h1 M103 47 h2 M106 47 h5 M114 47 h1 M117 47 h2 M120 47 h5 M128 47 h1 M131 47 h2 M134 47 h5 M0 48 h3 M4 48 h3 M8 48 h3 M12 48 h3 M16 48 h3 M20 48 h3 M24 48 h3 M28 48 h3 M32 48 h5 M40 48 h1 M43 48 h2 M46 48 h5 M54 48 h1 M57 48 h2 M60 48 h5 M68 48 h1 M71 48 h2 M74 48 h5 M82 48 h1 M85 48 h2 M88 48 h5 M96 48 h1 M99 48 h2 M102 48 h5 M110 48 h1 M113 48 h2 M116 48 h5 M124 48 h1 M127 48 h2 M130 48 h5 M138 48 h1 M0 49 h1 M2 49 h3 M6 49 h3 M10 49 h3 M14 49 h3 M18 49 h3 M22 49 h3 M26 49 h3 M30 49 h3 M36 49 h1 M39 49 h2 M42 49 h5 M50 49 h1 M53 49 h2 M56 49 h5 M64 49 h1 M67 49 h2 M70 49 h5 M78 49 h1 M81 49 h2 M84 49 h5 M92 49 h1 M95 49 h2 M98 49 h5 M106 49 h1 M109 49 h2 M112 49 h5 M120 49 h1 M123 49 h2 M126 49 h5 M134 49 h1 M137 49 h2 M0 50 h3 M4 50 h3 M8 50 h3 M12 50 h3 M16 50 h3 M20 50 h3 M24 50 h3 M28 50 h3 M32 50 h1 M35 50 h2 M38 50 h5 M46 50 h1 M49 50 h2 M52 50 h5 M60 50 h1 M63 50 h2 M66 50 h5 M74 50 h1 M77 50 h2 M80 50 h5 M88 50 h1 M91 50 h2 M94 50 h5 M102 50 h1 M105 50 h2 M108 50 h5 M116 50 h1 M119 50 h2 M122 50 h5 M130 50 h1 M133 50 h2 M136 50 h3 M0 51 h1 M2 51 h3 M6 51 h3 M10 51 h3 M14 51 h3 M18 51 h3 M22 51 h3 M26 51 h3 M30 51 h3 M34 51 h5 M42 51 h1 M45 51 h2 M48 51 h5 M56 51 h1 M59 51 h2 M62 51 h5 M70 51 h1 M73 51 h2 M76 51 h5 M84 51 h1 M87 51 h2 M90 51 h5 M98 51 h1 M101 51 h2 M104 51 h5 M112 51 h1 M115 51 h2 M118 51 h5 M126 51 h1 M129 51 h2 M132 51 h5 M138 51 h1 M0 52 h3 M4 52 h3 M8 52 h3 M12 52 h3 M16 52 h3 M20 52 h3 M24 52 h3 M28 52 h3 M32 52 h3 M38 52 h1 M41 52 h2 M44 52 h5 M52 52 h1 M55 52 h2 M58 52 h5 M66 52 h1 M69 52 h2 M72 52 h5 M80 52 h1 M83 52 h2 M86 52 h5 M94 52 h1 M97 52 h2 M100 52 h5 M108 52 h1 M111 52 h2 M114 52 h5 M122 52 h1 M125 52 h2 M128 52 h5 M136 52 h3 M0 53 h1 M2 53 h3 M6 53 h3 M10 53 h3 M14 53 h3 M18 53 h3 M22 53 h3 M26 53 h3 M30 53 h3 M34 53 h1 M37 53 h2 M40 53 h5 M48 53 h1 M51 53 h2 M54 53 h5 M62 53 h1 M65 53 h2 M68 53 h5 M76 53 h1 M79 53 h2 M82 53 h5 M90 53 h1 M93 53 h2 M96 53 h5 M104 53 h1 M107 53 h2 M110 53 h5 M118 53 h1 M121 53 h2 M124 53 h5 M132 53 h1 M135 53 h2 M138 53 h1 M0 54 h3 M4 54 h3 M8 54 h3 M12 54 h3 M16 54 h3 M20 54 h3 M24 54 h3 M28 54 h3 M32 54 h3 M36 54 h5 M44 54 h1 M47 54 h2 M50 54 h5 M58 54 h1 M61 54 h2 M64 54 h5 M72 54 h1 M75 54 h2 M78 54 h5 M86 54 h1 M89 54 h2 M92 54 h5 M100 54 h1 M103 54 h2 M106 54 h5 M114 54 h1 M117 54 h2 M120 54 h5 M128 54 h1 M131 54 h2 M134 54 h5 M0 55 h1 M2 55 h3 M6 55 h3 M10 55 h3 M14 55 h3 M18 55 h3 M22 55 h3 M26 55 h3 M30 55 h3 M34 55 h3 M40 55 h1 M43 55 h2 M46 55 h5 M54 55 h1 M57 55 h2 M60 55 h5 M68 55 h1 M71 55 h2 M74 55 h5 M82 55 h1 M85 55 h2 M88 55 h5 M96 55 h1 M99 55 h2 M102 55 h5 M110 55 h1 M113 55 h2 M116 55 h5 M124 55 h1 M127 55 h2 M130 55 h5 M138 55 h1 M0 56 h3 M4 56 h3 M8 56 h3 M12 56 h3 M16 56 h3 M20 56 h3 M24 56 h3 M28 56 h3 M32 56 h3 M36 56 h1 M39 56 h2 M42 56 h5 M50 56 h1 M53 56 h2 M56 56 h5 M64 56 h1 M67 56 h2 M70 56 h5 M78 56 h1 M81 56 h2 M84 56 h5 M92 56 h1 M95 56 h2 M98 56 h5 M106 56 h1 M109 56 h2 M112 56 h5 M120 56 h1 M123 56 h2 M126 56 h5 M134 56 h1 M137 56 h2 M0 57 h1 M2 57 h3 M6 57 h3 M10 57 h3 M14 57 h3 M18 57 h3 M22 57 h3 M26 57 h3 M30 57 h3 M34 57 h3 M38 57 h5 M46 57 h1 M49 57 h2 M52 57 h5 M60 57 h1 M63 57 h2 M66 57 h5 M74 57 h1 M77 57 h2 M80 57 h5 M88 57 h1 M91 57 h2 M94 57 h5 M102 57 h1 M105 57 h2 M108 57 h5 M116 57 h1 M119 57 h2 M122 57 h5 M130 57 h1 M133 57 h2 M136 57 h3 M0 58 h3 M4 58 h3 M8 58 h3 M12 58 h3 M16 58 h3 M20 58 h3 M24 58 h3 M28 58 h3 M32 58 h3 M36 58 h3 M42 58 h1 M45 58 h2 M48 58 h5 M56 58 h1 M59 58 h2 M62 58 h5 M70 58 h1 M73 58 h2 M76 58 h5 M84 58 h1 M87 58 h2 M90 58 h5 M98 58 h1 M101 58 h2 M104 58 h5 M112 58 h1 M115 58 h2 M118 58 h5 M126 58 h1 M129 58 h2 M132 58 h5 M138 58 h1 M0 59 h1 M2 59 h3 M6 59 h3 M10 59 h3 M14 59 h3 M18 59 h3 M22 59 h3 M26 59 h3 M30 59 h3 M34 59 h3 M38 59 h1 M41 59 h2 M44 59 h5 M52 59 h1 M55 59 h2 M58 59 h5 M66 59 h1 M69 59 h2 M72 59 h5 M80 59 h1 M83 59 h2 M86 59 h5 M94 59 h1 M97 59 h2 M100 59 h5 M108 59 h1 M111 59 h2 M114 59 h5 M122 59 h1 M125 59 h2 M128 59 h5 M136 59 h3 M0 60 h3 M4 60 h3 M8 60 h3 M12 60 h3 M16 60 h3 M20 60 h3 M24 60 h3 M28 60 h3 M32 60 h3 M36 60 h3 M40 60 h5 M48 60 h1 M51 60 h2 M54 60 h5 M62 60 h1 M65 60 h2 M68 60 h5 M76 60 h1 M79 60 h2 M82 60 h5 M90 60 h1 M93 60 h2 M96 60 h5 M104 60 h1 M107 60 h2 M110 60 h5 M118 60 h1 M121 60 h2 M124 60 h5 M132 60 h1 M135 60 h2 M138 60 h1 M0 61 h1 M2 61 h3 M6 61 h3 M10 61 h3 M14 61 h3 M18 61 h3 M22 61 h3 M26 61 h3 M30 61 h3 M34 61 h3 M38 61 h3 M44 61 h1 M47 61 h2 M50 61 h5 M58 61 h1 M61 61 h2 M64 61 h5 M72 61 h1 M75 61 h2 M78 61 h5 M86 61 h1 M89 61 h2 M92 61 h5 M100 61 h1 M103 61 h2 M106 61 h5 M114 61 h1 M117 61 h2 M120 61 h5 M128 61 h1 M131 61 h2 M134 61 h5 M0 62 h3 M4 62 h3 M8 62 h3 M12 62 h3 M16 62 h3 M20 62 h3 M24 62 h3 M28 62 h3 M32 62 h3 M36 62 h3 M40 62 h1 M43 62 h2 M46 62 h5 M54 62 h1 M57 62 h2 M60 62 h5 M68 62 h1 M71 62 h2 M74 62 h5 M82 62 h1 M85 62 h2 M88 62 h5 M96 62 h1 M99 62 h2 M102 62 h5 M110 62 h1 M113 62 h2 M116 62 h5 M124 62 h1 M127 62 h2 M130 62 h5 M138 62 h1 M0 63 h1 M2 63 h3 M6 63 h3 M10 63 h3 M14 63 h3 M18 63 h3 M22 63 h3 M26 63 h3 M30 63 h3 M34 63 h3 M38 63 h3 M42 63 h5 M50 63 h1 M53 63 h2 M56 63 h5 M64 63 h1 M67 63 h2 M70 63 h5 M78 63 h1 M81 63 h2 M84 63 h5 M92 63 h1 M95 63 h2 M98 63 h5 M106 63 h1 M109 63 h2 M112 63 h5 M120 63 h1 M123 63 h2 M126 63 h5 M134 63 h1 M137 63 h2 M0 64 h3 M4 64 h3 M8 64 h3 M12 64 h3 M16 64 h3 M20 64 h3 M24 64 h3 M28 64 h3 M32 64 h3 M36 64 h3 M40 64 h3 M46 64 h1 M49 64 h2 M52 64 h5 M60 64 h1 M63 64 h2 M66 64 h5 M74 64 h1 M77 64 h2 M80 64 h5 M88 64 h1 M91 64 h2 M94 64 h5 M102 64 h1 M105 64 h2 M108 64 h5 M116 64 h1 M119 64 h2 M122 64 h5 M130 64 h1 M133 64 h2 M136 64 h3 M0 65 h1 M2 65 h3 M6 65 h3 M10 65 h3 M14 65 h3 M18 65 h3 M22 65 h3 M26 65 h3 M30 65 h3 M34 65 h3 M38 65 h3 M42 65 h1 M45 65 h2 M48 65 h5 M56 65 h1 M59 65 h2 M62 65 h5 M70 65 h1 M73 65 h2 M76 65 h5 M84 65 h1 M87 65 h2 M90 65 h5 M98 65 h1 M101 65 h2 M104 65 h5 M112 65 h1 M115 65 h2 M118 65 h5 M126 65 h1 M129 65 h2 M132 65 h5 M138 65 h1 M0 66 h3 M4 66 h3 M8 66 h3 M12 66 h3 M16 66 h3 M20 66 h3 M24 66 h3 M28 66 h3 M32 66 h3 M36 66 h3 M40 66 h3 M44 66 h5 M52 66 h1 M55 66 h2 M58 66 h5 M66 66 h1 M69 66 h2 M72 66 h5 M80 66 h1 M83 66 h2 M86 66 h5 M94 66 h1 M97 66 h2 M100 66 h5 M108 66 h1 M111 66 h2 M114 66 h5 M122 66 h1 M125 66 h2 M128 66 h5 M136 66 h3 M0 67 h1 M2 67 h3 M6 67 h3 M10 67 h3 M14 67 h3 M18 67 h3 M22 67 h3 M26 67 h3 M30 67 h3 M34 67 h3 M38 67 h3 M42 67 h3 M48 67 h1 M51 67 h2 M54 67 h5 M62 67 h1 M65 67 h2 M68 67 h5 M76 67 h1 M79 67 h2 M82 67 h5 M90 67 h1 M93 67 h2 M96 67 h5 M104 67 h1 M107 67 h2 M110 67 h5 M118 67 h1 M121 67 h2 M124 67 h5 M132 67 h1 M135 67 h2 M138 67 h1 M0 68 h3 M4 68 h3 M8 68 h3 M12 68 h3 M16 68 h3 M20 68 h3 M24 68 h3 M28 68 h3 M32 68 h3 M36 68 h3 M40 68 h3 M44 68 h1 M47 68 h2 M50 68 h5 M58 68 h1 M61 68 h2 M64 68 h5 M72 68 h1 M75 68 h2 M78 68 h5 M86 68 h1 M89 68 h2 M92 68 h5 M100 68 h1 M103 68 h2 M106 68 h5 M114 68 h1 M117 68 h2 M120 68 h5 M128 68 h1 M131 68 h2 M134 68 h5 M0 69 h1 M2 69 h3 M6 69 h3 M10 69 h3 M14 69 h3 M18 69 h3 M22 69 h3 M26 69 h3 M30 69 h3 M34 69 h3 M38 69 h3 M42 69 h3 M46 69 h5 M54 69 h1 M57 69 h2 M60 69 h5 M68 69 h1 M71 69 h2 M74 69 h5 M82 69 h1 M85 69 h2 M88 69 h5 M96 69 h1 M99 69 h2 M102 69 h5 M110 69 h1 M113 69 h2 M116 69 h5 M124 69 h1 M127 69 h2 M130 69 h5 M138 69 h1 "/>
</g>
<text class="axis" x="386.00" y="267.00">cell position</text>
<text class="axis" x="8.00" y="52.00" transform="rotate(90 8.00 52.00)">time step</text>
<text x="32.00" y="282.00" font-size="11" font-weight="400">Initial row repeats 11111000100110 across 140 cells; black cells are 1.</text>
</svg>
