<svg xmlns="http://www.w3.org/2000/svg" viewBox="0 0 880.00 590.00" width="880" height="590" role="img">
<title>Cook packet scale frontier: 2p x 16 tape bit x 16384 steps</title>
<rect x="0" y="0" width="880.00" height="590.00" fill="#f7f7f4"/>
<style>text{font-family:Arial,Helvetica,sans-serif;fill:#222}.small{font-size:11px;fill:#555}.axis{font-size:10px;fill:#666}.pix{fill:none;stroke:#111;stroke-width:1;shape-rendering:crispEdges}.mark{stroke:#c0392b;stroke-width:1.2;stroke-dasharray:4 3}.slice{stroke:#2c3e50;stroke-width:1;stroke-dasharray:3 3}</style>
<text x="24.00" y="28.00" font-size="18" font-weight="700">Cook packet scale frontier: 2 production x 16 tape bit x 16384 steps</text>
<text x="24.00" y="49.00" font-size="11" font-weight="400">Initial row encoded once; the 16384-step evolution is rendered with 5-level density buckets (50/55/60/65/75% thresholds) over a 280x280 viewport.</text>
<rect x="34.00" y="70.00" width="420.00" height="16.00" fill="#fff" stroke="#cfcfc8" stroke-width="1"/>
<g transform="translate(34.00 70.00) scale(1.50000 16.00000)" fill="#111">
<path class="pix" d="M0 0 h280 "/>
</g>
<rect x="34.00" y="112.00" width="420.00" height="420.00" fill="#fff" stroke="#cfcfc8" stroke-width="1"/>
<g transform="translate(34.00 112.00) scale(1.50000 1.50000)">
<path fill="#dadcd3" stroke="none" shape-rendering="crispEdges" d=""/>
</g>
<g transform="translate(34.00 112.00) scale(1.50000 1.50000)">
<path fill="#a8aba2" stroke="none" shape-rendering="crispEdges" d="M0 0 h280 v1 H0 Z M0 1 h280 v1 H0 Z M0 2 h280 v1 H0 Z M0 3 h280 v1 H0 Z M0 4 h280 v1 H0 Z M0 5 h280 v1 H0 Z M0 6 h280 v1 H0 Z M0 7 h280 v1 H0 Z M0 8 h280 v1 H0 Z M0 9 h280 v1 H0 Z M0 10 h280 v1 H0 Z M0 11 h280 v1 H0 Z M0 12 h280 v1 H0 Z M0 13 h280 v1 H0 Z M0 14 h280 v1 H0 Z M0 15 h280 v1 H0 Z M0 16 h280 v1 H0 Z M0 17 h280 v1 H0 Z M0 18 h280 v1 H0 Z M0 19 h280 v1 H0 Z M0 20 h280 v1 H0 Z M0 21 h280 v1 H0 Z M0 22 h280 v1 H0 Z M0 23 h280 v1 H0 Z M0 24 h280 v1 H0 Z M0 25 h280 v1 H0 Z M0 26 h280 v1 H0 Z M0 27 h280 v1 H0 Z M0 28 h280 v1 H0 Z M0 29 h280 v1 H0 Z M0 30 h280 v1 H0 Z M0 31 h280 v1 H0 Z M0 32 h280 v1 H0 Z M0 33 h280 v1 H0 Z M0 34 h280 v1 H0 Z M0 35 h280 v1 H0 Z M0 36 h280 v1 H0 Z M0 37 h280 v1 H0 Z M0 38 h280 v1 H0 Z M0 39 h280 v1 H0 Z M0 40 h280 v1 H0 Z M0 41 h280 v1 H0 Z M0 42 h280 v1 H0 Z M0 43 h280 v1 H0 Z M0 44 h280 v1 H0 Z M0 45 h280 v1 H0 Z M0 46 h280 v1 H0 Z M0 47 h280 v1 H0 Z M0 48 h280 v1 H0 Z M0 49 h280 v1 H0 Z M0 50 h280 v1 H0 Z M0 51 h280 v1 H0 Z M0 52 h280 v1 H0 Z M0 53 h280 v1 H0 Z M0 54 h280 v1 H0 Z M0 55 h280 v1 H0 Z M0 56 h280 v1 H0 Z M0 57 h280 v1 H0 Z M0 58 h280 v1 H0 Z M0 59 h280 v1 H0 Z M0 60 h280 v1 H0 Z M0 61 h280 v1 H0 Z M0 62 h280 v1 H0 Z M0 63 h280 v1 H0 Z M0 64 h280 v1 H0 Z M0 65 h280 v1 H0 Z M0 66 h280 v1 H0 Z M0 67 h280 v1 H0 Z M0 68 h280 v1 H0 Z M1 69 h279 v1 H1 Z M1 70 h279 v1 H1 Z M1 71 h279 v1 H1 Z M1 72 h279 v1 H1 Z M1 73 h279 v1 H1 Z M0 74 h280 v1 H0 Z M0 75 h280 v1 H0 Z M0 76 h280 v1 H0 Z M0 77 h280 v1 H0 Z M0 78 h280 v1 H0 Z M0 79 h280 v1 H0 Z M0 80 h280 v1 H0 Z M0 81 h280 v1 H0 Z M0 82 h280 v1 H0 Z M0 83 h280 v1 H0 Z M0 84 h280 v1 H0 Z M0 85 h280 v1 H0 Z M0 86 h280 v1 H0 Z M0 87 h280 v1 H0 Z M0 88 h280 v1 H0 Z M0 89 h280 v1 H0 Z M0 90 h280 v1 H0 Z M0 91 h280 v1 H0 Z M0 92 h280 v1 H0 Z M0 93 h280 v1 H0 Z M0 94 h280 v1 H0 Z M0 95 h280 v1 H0 Z M0 96 h280 v1 H0 Z M1 97 h279 v1 H1 Z M1 98 h279 v1 H1 Z M1 99 h279 v1 H1 Z M1 100 h279 v1 H1 Z M1 101 h279 v1 H1 Z M1 102 h279 v1 H1 Z M2 103 h278 v1 H2 Z M2 104 h278 v1 H2 Z M2 105 h278 v1 H2 Z M2 106 h278 v1 H2 Z M2 107 h278 v1 H2 Z M2 108 h278 v1 H2 Z M3 109 h277 v1 H3 Z M3 110 h277 v1 H3 Z M3 111 h277 v1 H3 Z M3 112 h277 v1 H3 Z M3 113 h277 v1 H3 Z M3 114 h277 v1 H3 Z M4 115 h276 v1 H4 Z M4 116 h276 v1 H4 Z M4 117 h276 v1 H4 Z M4 118 h276 v1 H4 Z M4 119 h276 v1 H4 Z M4 120 h276 v1 H4 Z M5 121 h275 v1 H5 Z M5 122 h275 v1 H5 Z M5 123 h275 v1 H5 Z M5 124 h275 v1 H5 Z M5 125 h275 v1 H5 Z M5 126 h275 v1 H5 Z M6 127 h274 v1 H6 Z M6 128 h274 v1 H6 Z M6 129 h274 v1 H6 Z M6 130 h274 v1 H6 Z M6 131 h274 v1 H6 Z M6 132 h274 v1 H6 Z M7 133 h273 v1 H7 Z M7 134 h273 v1 H7 Z M7 135 h273 v1 H7 Z M7 136 h273 v1 H7 Z M7 137 h273 v1 H7 Z M7 138 h273 v1 H7 Z M8 139 h272 v1 H8 Z M8 140 h272 v1 H8 Z M8 141 h272 v1 H8 Z M8 142 h272 v1 H8 Z M8 143 h272 v1 H8 Z M8 144 h272 v1 H8 Z M8 145 h272 v1 H8 Z M8 146 h272 v1 H8 Z M8 147 h272 v1 H8 Z M8 148 h272 v1 H8 Z M8 149 h272 v1 H8 Z M7 150 h273 v1 H7 Z M7 151 h273 v1 H7 Z M7 152 h273 v1 H7 Z M7 153 h273 v1 H7 Z M7 154 h273 v1 H7 Z M7 155 h273 v1 H7 Z M7 156 h273 v1 H7 Z M7 157 h273 v1 H7 Z M7 158 h273 v1 H7 Z M7 159 h273 v1 H7 Z M7 160 h273 v1 H7 Z M7 161 h273 v1 H7 Z M7 162 h273 v1 H7 Z M7 163 h273 v1 H7 Z M6 164 h274 v1 H6 Z M6 165 h274 v1 H6 Z M6 166 h274 v1 H6 Z M6 167 h274 v1 H6 Z M6 168 h274 v1 H6 Z M6 169 h274 v1 H6 Z M6 170 h274 v1 H6 Z M6 171 h274 v1 H6 Z M6 172 h274 v1 H6 Z M6 173 h274 v1 H6 Z M6 174 h274 v1 H6 Z M6 175 h274 v1 H6 Z M6 176 h274 v1 H6 Z M6 177 h274 v1 H6 Z M5 178 h275 v1 H5 Z M5 179 h275 v1 H5 Z M5 180 h275 v1 H5 Z M5 181 h275 v1 H5 Z M5 182 h275 v1 H5 Z M5 183 h275 v1 H5 Z M5 184 h275 v1 H5 Z M5 185 h275 v1 H5 Z M5 186 h275 v1 H5 Z M5 187 h275 v1 H5 Z M5 188 h275 v1 H5 Z M5 189 h275 v1 H5 Z M5 190 h275 v1 H5 Z M5 191 h275 v1 H5 Z M4 192 h276 v1 H4 Z M4 193 h276 v1 H4 Z M4 194 h276 v1 H4 Z M4 195 h276 v1 H4 Z M4 196 h276 v1 H4 Z M4 197 h276 v1 H4 Z M4 198 h276 v1 H4 Z M4 199 h276 v1 H4 Z M4 200 h276 v1 H4 Z M4 201 h276 v1 H4 Z M4 202 h276 v1 H4 Z M4 203 h276 v1 H4 Z M4 204 h276 v1 H4 Z M4 205 h276 v1 H4 Z M3 206 h277 v1 H3 Z M3 207 h277 v1 H3 Z M3 208 h277 v1 H3 Z M3 209 h277 v1 H3 Z M3 210 h277 v1 H3 Z M3 211 h277 v1 H3 Z M3 212 h277 v1 H3 Z M3 213 h277 v1 H3 Z M3 214 h277 v1 H3 Z M3 215 h277 v1 H3 Z M3 216 h277 v1 H3 Z M3 217 h277 v1 H3 Z M3 218 h277 v1 H3 Z M3 219 h277 v1 H3 Z M2 220 h278 v1 H2 Z M2 221 h278 v1 H2 Z M2 222 h278 v1 H2 Z M2 223 h278 v1 H2 Z M2 224 h278 v1 H2 Z M2 225 h278 v1 H2 Z M2 226 h278 v1 H2 Z M2 227 h278 v1 H2 Z M2 228 h278 v1 H2 Z M2 229 h278 v1 H2 Z M2 230 h278 v1 H2 Z M2 231 h278 v1 H2 Z M2 232 h278 v1 H2 Z M2 233 h278 v1 H2 Z M1 234 h279 v1 H1 Z M1 235 h279 v1 H1 Z M1 236 h279 v1 H1 Z M1 237 h279 v1 H1 Z M1 238 h279 v1 H1 Z M1 239 h279 v1 H1 Z M1 240 h279 v1 H1 Z M1 241 h279 v1 H1 Z M1 242 h279 v1 H1 Z M1 243 h279 v1 H1 Z M1 244 h279 v1 H1 Z M1 245 h279 v1 H1 Z M1 246 h279 v1 H1 Z M1 247 h279 v1 H1 Z M0 248 h280 v1 H0 Z M0 249 h280 v1 H0 Z M0 250 h280 v1 H0 Z M0 251 h280 v1 H0 Z M0 252 h280 v1 H0 Z M0 253 h280 v1 H0 Z M0 254 h280 v1 H0 Z M0 255 h280 v1 H0 Z M0 256 h280 v1 H0 Z M0 257 h280 v1 H0 Z M0 258 h280 v1 H0 Z M0 259 h280 v1 H0 Z M0 260 h280 v1 H0 Z M0 261 h280 v1 H0 Z M0 262 h280 v1 H0 Z M0 263 h280 v1 H0 Z M0 264 h280 v1 H0 Z M0 265 h280 v1 H0 Z M0 266 h280 v1 H0 Z M0 267 h280 v1 H0 Z M0 268 h280 v1 H0 Z M0 269 h280 v1 H0 Z M0 270 h280 v1 H0 Z M0 271 h280 v1 H0 Z M0 272 h280 v1 H0 Z M0 273 h280 v1 H0 Z M0 274 h280 v1 H0 Z M0 275 h280 v1 H0 Z M0 276 h280 v1 H0 Z M0 277 h280 v1 H0 Z M0 278 h280 v1 H0 Z M0 279 h280 v1 H0 Z "/>
</g>
<g transform="translate(34.00 112.00) scale(1.50000 1.50000)">
<path fill="#787b72" stroke="none" shape-rendering="crispEdges" d="M0 69 h1 v1 H0 Z M0 70 h1 v1 H0 Z M0 71 h1 v1 H0 Z M0 72 h1 v1 H0 Z M0 73 h1 v1 H0 Z M0 97 h1 v1 H0 Z M0 98 h1 v1 H0 Z M1 103 h1 v1 H1 Z M1 104 h1 v1 H1 Z M2 109 h1 v1 H2 Z M2 110 h1 v1 H2 Z M3 115 h1 v1 H3 Z M3 116 h1 v1 H3 Z M4 121 h1 v1 H4 Z M4 122 h1 v1 H4 Z M5 127 h1 v1 H5 Z M5 128 h1 v1 H5 Z M6 133 h1 v1 H6 Z M6 134 h1 v1 H6 Z M7 139 h1 v1 H7 Z M7 140 h1 v1 H7 Z M7 146 h1 v1 H7 Z M7 147 h1 v1 H7 Z M7 148 h1 v1 H7 Z M7 149 h1 v1 H7 Z M6 160 h1 v1 H6 Z M6 161 h1 v1 H6 Z M6 162 h1 v1 H6 Z M6 163 h1 v1 H6 Z M5 174 h1 v1 H5 Z M5 175 h1 v1 H5 Z M5 176 h1 v1 H5 Z M5 177 h1 v1 H5 Z M4 188 h1 v1 H4 Z M4 189 h1 v1 H4 Z M4 190 h1 v1 H4 Z M4 191 h1 v1 H4 Z M3 202 h1 v1 H3 Z M3 203 h1 v1 H3 Z M3 204 h1 v1 H3 Z M3 205 h1 v1 H3 Z M2 216 h1 v1 H2 Z M2 217 h1 v1 H2 Z M2 218 h1 v1 H2 Z M2 219 h1 v1 H2 Z M1 230 h1 v1 H1 Z M1 231 h1 v1 H1 Z M1 232 h1 v1 H1 Z M1 233 h1 v1 H1 Z M0 244 h1 v1 H0 Z M0 245 h1 v1 H0 Z M0 246 h1 v1 H0 Z M0 247 h1 v1 H0 Z "/>
</g>
<g transform="translate(34.00 112.00) scale(1.50000 1.50000)">
<path fill="#4a4d44" stroke="none" shape-rendering="crispEdges" d="M0 99 h1 v1 H0 Z M0 100 h1 v1 H0 Z M0 101 h1 v1 H0 Z M0 103 h1 v1 H0 Z M1 105 h1 v1 H1 Z M0 106 h2 v1 H0 Z M1 107 h1 v1 H1 Z M1 108 h1 v1 H1 Z M0 110 h1 v1 H0 Z M2 111 h1 v1 H2 Z M1 112 h2 v1 H1 Z M2 113 h1 v1 H2 Z M0 114 h1 v1 H0 Z M2 114 h1 v1 H2 Z M1 116 h1 v1 H1 Z M3 117 h1 v1 H3 Z M0 118 h1 v1 H0 Z M2 118 h2 v1 H2 Z M3 119 h1 v1 H3 Z M1 120 h1 v1 H1 Z M3 120 h1 v1 H3 Z M0 122 h1 v1 H0 Z M2 122 h1 v1 H2 Z M4 123 h1 v1 H4 Z M1 124 h1 v1 H1 Z M3 124 h2 v1 H3 Z M4 125 h1 v1 H4 Z M0 126 h1 v1 H0 Z M2 126 h1 v1 H2 Z M4 126 h1 v1 H4 Z M1 128 h1 v1 H1 Z M3 128 h1 v1 H3 Z M5 129 h1 v1 H5 Z M0 130 h1 v1 H0 Z M2 130 h1 v1 H2 Z M4 130 h2 v1 H4 Z M5 131 h1 v1 H5 Z M1 132 h1 v1 H1 Z M3 132 h1 v1 H3 Z M5 132 h1 v1 H5 Z M0 134 h1 v1 H0 Z M2 134 h1 v1 H2 Z M4 134 h1 v1 H4 Z M6 135 h1 v1 H6 Z M1 136 h1 v1 H1 Z M3 136 h1 v1 H3 Z M5 136 h2 v1 H5 Z M6 137 h1 v1 H6 Z M0 138 h1 v1 H0 Z M2 138 h1 v1 H2 Z M4 138 h1 v1 H4 Z M6 138 h1 v1 H6 Z M1 139 h1 v1 H1 Z M3 139 h1 v1 H3 Z M5 139 h1 v1 H5 Z M0 141 h1 v1 H0 Z M2 141 h1 v1 H2 Z M4 141 h1 v1 H4 Z M6 141 h2 v1 H6 Z M7 142 h1 v1 H7 Z M1 143 h1 v1 H1 Z M3 143 h1 v1 H3 Z M5 143 h1 v1 H5 Z M7 143 h1 v1 H7 Z M7 144 h1 v1 H7 Z M0 145 h1 v1 H0 Z M2 145 h1 v1 H2 Z M4 145 h1 v1 H4 Z M6 145 h2 v1 H6 Z M1 147 h1 v1 H1 Z M3 147 h1 v1 H3 Z M5 147 h1 v1 H5 Z M0 149 h1 v1 H0 Z M2 149 h1 v1 H2 Z M4 149 h1 v1 H4 Z M6 149 h1 v1 H6 Z M1 151 h1 v1 H1 Z M3 151 h1 v1 H3 Z M5 151 h2 v1 H5 Z M6 152 h1 v1 H6 Z M0 153 h1 v1 H0 Z M2 153 h1 v1 H2 Z M4 153 h1 v1 H4 Z M6 153 h1 v1 H6 Z M6 154 h1 v1 H6 Z M1 155 h1 v1 H1 Z M3 155 h1 v1 H3 Z M5 155 h2 v1 H5 Z M6 156 h1 v1 H6 Z M0 157 h1 v1 H0 Z M2 157 h1 v1 H2 Z M4 157 h1 v1 H4 Z M6 157 h1 v1 H6 Z M6 158 h1 v1 H6 Z M1 159 h1 v1 H1 Z M3 159 h1 v1 H3 Z M5 159 h2 v1 H5 Z M0 161 h1 v1 H0 Z M2 161 h1 v1 H2 Z M4 161 h1 v1 H4 Z M1 163 h1 v1 H1 Z M3 163 h1 v1 H3 Z M5 163 h1 v1 H5 Z M0 165 h1 v1 H0 Z M2 165 h1 v1 H2 Z M4 165 h2 v1 H4 Z M5 166 h1 v1 H5 Z M1 167 h1 v1 H1 Z M3 167 h1 v1 H3 Z M5 167 h1 v1 H5 Z M5 168 h1 v1 H5 Z M0 169 h1 v1 H0 Z M2 169 h1 v1 H2 Z M4 169 h2 v1 H4 Z M5 170 h1 v1 H5 Z M1 171 h1 v1 H1 Z M3 171 h1 v1 H3 Z M5 171 h1 v1 H5 Z M5 172 h1 v1 H5 Z M0 173 h1 v1 H0 Z M2 173 h1 v1 H2 Z M4 173 h2 v1 H4 Z M1 174 h1 v1 H1 Z M3 174 h1 v1 H3 Z M0 176 h1 v1 H0 Z M2 176 h1 v1 H2 Z M4 176 h1 v1 H4 Z M1 178 h1 v1 H1 Z M3 178 h1 v1 H3 Z M4 179 h1 v1 H4 Z M0 180 h1 v1 H0 Z M2 180 h1 v1 H2 Z M4 180 h1 v1 H4 Z M4 181 h1 v1 H4 Z M1 182 h1 v1 H1 Z M3 182 h2 v1 H3 Z M4 183 h1 v1 H4 Z M0 184 h1 v1 H0 Z M2 184 h1 v1 H2 Z M4 184 h1 v1 H4 Z M4 185 h1 v1 H4 Z M1 186 h1 v1 H1 Z M3 186 h2 v1 H3 Z M4 187 h1 v1 H4 Z M0 188 h1 v1 H0 Z M2 188 h1 v1 H2 Z M1 190 h1 v1 H1 Z M3 190 h1 v1 H3 Z M0 192 h1 v1 H0 Z M2 192 h1 v1 H2 Z M3 193 h1 v1 H3 Z M1 194 h1 v1 H1 Z M3 194 h1 v1 H3 Z M3 195 h1 v1 H3 Z M0 196 h1 v1 H0 Z M2 196 h2 v1 H2 Z M3 197 h1 v1 H3 Z M1 198 h1 v1 H1 Z M3 198 h1 v1 H3 Z M3 199 h1 v1 H3 Z M0 200 h1 v1 H0 Z M2 200 h2 v1 H2 Z M3 201 h1 v1 H3 Z M1 202 h1 v1 H1 Z M0 204 h1 v1 H0 Z M2 204 h1 v1 H2 Z M1 206 h1 v1 H1 Z M2 207 h1 v1 H2 Z M0 208 h1 v1 H0 Z M2 208 h1 v1 H2 Z M1 209 h2 v1 H1 Z M2 210 h1 v1 H2 Z M0 211 h1 v1 H0 Z M2 211 h1 v1 H2 Z M2 212 h1 v1 H2 Z M1 213 h2 v1 H1 Z M2 214 h1 v1 H2 Z M0 215 h1 v1 H0 Z M2 215 h1 v1 H2 Z M1 217 h1 v1 H1 Z M0 219 h1 v1 H0 Z M1 221 h1 v1 H1 Z M1 222 h1 v1 H1 Z M0 223 h2 v1 H0 Z M1 224 h1 v1 H1 Z M1 225 h1 v1 H1 Z M1 226 h1 v1 H1 Z M0 227 h2 v1 H0 Z M1 228 h1 v1 H1 Z M1 229 h1 v1 H1 Z M0 231 h1 v1 H0 Z M0 235 h1 v1 H0 Z M0 236 h1 v1 H0 Z M0 237 h1 v1 H0 Z M0 238 h1 v1 H0 Z M0 239 h1 v1 H0 Z M0 240 h1 v1 H0 Z M0 241 h1 v1 H0 Z M0 242 h1 v1 H0 Z M0 243 h1 v1 H0 Z "/>
</g>
<g transform="translate(34.00 112.00) scale(1.50000 1.50000)">
<path fill="#1a1c18" stroke="none" shape-rendering="crispEdges" d="M0 102 h1 v1 H0 Z M0 104 h1 v1 H0 Z M0 105 h1 v1 H0 Z M0 107 h1 v1 H0 Z M0 108 h1 v1 H0 Z M0 109 h2 v1 H0 Z M1 110 h1 v1 H1 Z M0 111 h2 v1 H0 Z M0 112 h1 v1 H0 Z M0 113 h2 v1 H0 Z M1 114 h1 v1 H1 Z M0 115 h3 v1 H0 Z M0 116 h1 v1 H0 Z M2 116 h1 v1 H2 Z M0 117 h3 v1 H0 Z M1 118 h1 v1 H1 Z M0 119 h3 v1 H0 Z M0 120 h1 v1 H0 Z M2 120 h1 v1 H2 Z M0 121 h4 v1 H0 Z M1 122 h1 v1 H1 Z M3 122 h1 v1 H3 Z M0 123 h4 v1 H0 Z M0 124 h1 v1 H0 Z M2 124 h1 v1 H2 Z M0 125 h4 v1 H0 Z M1 126 h1 v1 H1 Z M3 126 h1 v1 H3 Z M0 127 h5 v1 H0 Z M0 128 h1 v1 H0 Z M2 128 h1 v1 H2 Z M4 128 h1 v1 H4 Z M0 129 h5 v1 H0 Z M1 130 h1 v1 H1 Z M3 130 h1 v1 H3 Z M0 131 h5 v1 H0 Z M0 132 h1 v1 H0 Z M2 132 h1 v1 H2 Z M4 132 h1 v1 H4 Z M0 133 h6 v1 H0 Z M1 134 h1 v1 H1 Z M3 134 h1 v1 H3 Z M5 134 h1 v1 H5 Z M0 135 h6 v1 H0 Z M0 136 h1 v1 H0 Z M2 136 h1 v1 H2 Z M4 136 h1 v1 H4 Z M0 137 h6 v1 H0 Z M1 138 h1 v1 H1 Z M3 138 h1 v1 H3 Z M5 138 h1 v1 H5 Z M0 139 h1 v1 H0 Z M2 139 h1 v1 H2 Z M4 139 h1 v1 H4 Z M6 139 h1 v1 H6 Z M0 140 h7 v1 H0 Z M1 141 h1 v1 H1 Z M3 141 h1 v1 H3 Z M5 141 h1 v1 H5 Z M0 142 h7 v1 H0 Z M0 143 h1 v1 H0 Z M2 143 h1 v1 H2 Z M4 143 h1 v1 H4 Z M6 143 h1 v1 H6 Z M0 144 h7 v1 H0 Z M1 145 h1 v1 H1 Z M3 145 h1 v1 H3 Z M5 145 h1 v1 H5 Z M0 146 h7 v1 H0 Z M0 147 h1 v1 H0 Z M2 147 h1 v1 H2 Z M4 147 h1 v1 H4 Z M6 147 h1 v1 H6 Z M0 148 h7 v1 H0 Z M1 149 h1 v1 H1 Z M3 149 h1 v1 H3 Z M5 149 h1 v1 H5 Z M0 150 h7 v1 H0 Z M0 151 h1 v1 H0 Z M2 151 h1 v1 H2 Z M4 151 h1 v1 H4 Z M0 152 h6 v1 H0 Z M1 153 h1 v1 H1 Z M3 153 h1 v1 H3 Z M5 153 h1 v1 H5 Z M0 154 h6 v1 H0 Z M0 155 h1 v1 H0 Z M2 155 h1 v1 H2 Z M4 155 h1 v1 H4 Z M0 156 h6 v1 H0 Z M1 157 h1 v1 H1 Z M3 157 h1 v1 H3 Z M5 157 h1 v1 H5 Z M0 158 h6 v1 H0 Z M0 159 h1 v1 H0 Z M2 159 h1 v1 H2 Z M4 159 h1 v1 H4 Z M0 160 h6 v1 H0 Z M1 161 h1 v1 H1 Z M3 161 h1 v1 H3 Z M5 161 h1 v1 H5 Z M0 162 h6 v1 H0 Z M0 163 h1 v1 H0 Z M2 163 h1 v1 H2 Z M4 163 h1 v1 H4 Z M0 164 h6 v1 H0 Z M1 165 h1 v1 H1 Z M3 165 h1 v1 H3 Z M0 166 h5 v1 H0 Z M0 167 h1 v1 H0 Z M2 167 h1 v1 H2 Z M4 167 h1 v1 H4 Z M0 168 h5 v1 H0 Z M1 169 h1 v1 H1 Z M3 169 h1 v1 H3 Z M0 170 h5 v1 H0 Z M0 171 h1 v1 H0 Z M2 171 h1 v1 H2 Z M4 171 h1 v1 H4 Z M0 172 h5 v1 H0 Z M1 173 h1 v1 H1 Z M3 173 h1 v1 H3 Z M0 174 h1 v1 H0 Z M2 174 h1 v1 H2 Z M4 174 h1 v1 H4 Z M0 175 h5 v1 H0 Z M1 176 h1 v1 H1 Z M3 176 h1 v1 H3 Z M0 177 h5 v1 H0 Z M0 178 h1 v1 H0 Z M2 178 h1 v1 H2 Z M4 178 h1 v1 H4 Z M0 179 h4 v1 H0 Z M1 180 h1 v1 H1 Z M3 180 h1 v1 H3 Z M0 181 h4 v1 H0 Z M0 182 h1 v1 H0 Z M2 182 h1 v1 H2 Z M0 183 h4 v1 H0 Z M1 184 h1 v1 H1 Z M3 184 h1 v1 H3 Z M0 185 h4 v1 H0 Z M0 186 h1 v1 H0 Z M2 186 h1 v1 H2 Z M0 187 h4 v1 H0 Z M1 188 h1 v1 H1 Z M3 188 h1 v1 H3 Z M0 189 h4 v1 H0 Z M0 190 h1 v1 H0 Z M2 190 h1 v1 H2 Z M0 191 h4 v1 H0 Z M1 192 h1 v1 H1 Z M3 192 h1 v1 H3 Z M0 193 h3 v1 H0 Z M0 194 h1 v1 H0 Z M2 194 h1 v1 H2 Z M0 195 h3 v1 H0 Z M1 196 h1 v1 H1 Z M0 197 h3 v1 H0 Z M0 198 h1 v1 H0 Z M2 198 h1 v1 H2 Z M0 199 h3 v1 H0 Z M1 200 h1 v1 H1 Z M0 201 h3 v1 H0 Z M0 202 h1 v1 H0 Z M2 202 h1 v1 H2 Z M0 203 h3 v1 H0 Z M1 204 h1 v1 H1 Z M0 205 h3 v1 H0 Z M0 206 h1 v1 H0 Z M2 206 h1 v1 H2 Z M0 207 h2 v1 H0 Z M1 208 h1 v1 H1 Z M0 209 h1 v1 H0 Z M0 210 h2 v1 H0 Z M1 211 h1 v1 H1 Z M0 212 h2 v1 H0 Z M0 213 h1 v1 H0 Z M0 214 h2 v1 H0 Z M1 215 h1 v1 H1 Z M0 216 h2 v1 H0 Z M0 217 h1 v1 H0 Z M0 218 h2 v1 H0 Z M1 219 h1 v1 H1 Z M0 220 h2 v1 H0 Z M0 221 h1 v1 H0 Z M0 222 h1 v1 H0 Z M0 224 h1 v1 H0 Z M0 225 h1 v1 H0 Z M0 226 h1 v1 H0 Z M0 228 h1 v1 H0 Z M0 229 h1 v1 H0 Z M0 230 h1 v1 H0 Z M0 232 h1 v1 H0 Z M0 233 h1 v1 H0 Z M0 234 h1 v1 H0 Z "/>
</g>
<text class="axis" x="388.00" y="547.00">cell position</text>
<text class="axis" x="10.00" y="122.00" transform="rotate(90 10.00 122.00)">time step</text>
</svg>
