<svg xmlns="http://www.w3.org/2000/svg" viewBox="0 0 490.00 590.00" width="490" height="590" role="img">
<title>Cook packet scale frontier: 2 production x 16 tape bit x 16384 steps</title>
<rect x="0" y="0" width="490.00" height="590.00" fill="#f7f7f4"/>
<style>text{font-family:Arial,Helvetica,sans-serif;fill:#222}.small{font-size:11px;fill:#555}.axis{font-size:10px;fill:#666}.pix{fill:none;stroke:#111;stroke-width:1;shape-rendering:crispEdges}.mark{stroke:#c0392b;stroke-width:1.2;stroke-dasharray:4 3}.slice{stroke:#2c3e50;stroke-width:1;stroke-dasharray:3 3}</style>
<text x="24.00" y="28.00" font-size="18" font-weight="700">Cook packet scale frontier: 2 production x 16 tape bit x 16384 steps</text>
<text x="24.00" y="49.00" font-size="11" font-weight="400">The 16384-step run is majority-downsampled to a compact viewport.</text>
<rect x="34.00" y="70.00" width="420.00" height="16.00" fill="#fff" stroke="#cfcfc8" stroke-width="1"/>
<g transform="translate(34.00 70.00) scale(1.50000 16.00000)" fill="#111">
<path class="pix" d="M0 0 h280 "/>
</g>
<rect x="34.00" y="112.00" width="420.00" height="420.00" fill="#fff" stroke="#cfcfc8" stroke-width="1"/>
<g transform="translate(34.00 112.00) scale(1.50000 1.50000)" fill="#111">
<path class="pix" d="M0 0 h280 M0 1 h280 M0 2 h280 M0 3 h280 M0 4 h280 M0 5 h280 M0 6 h280 M0 7 h280 M0 8 h280 M0 9 h280 M0 10 h280 M0 11 h280 M0 12 h280 M0 13 h280 M0 14 h280 M0 15 h280 M0 16 h280 M0 17 h280 M0 18 h280 M0 19 h280 M0 20 h280 M0 21 h280 M0 22 h280 M0 23 h280 M0 24 h280 M0 25 h280 M0 26 h280 M0 27 h280 M0 28 h280 M0 29 h280 M0 30 h280 M0 31 h280 M0 32 h280 M0 33 h280 M0 34 h280 M0 35 h280 M0 36 h280 M0 37 h280 M0 38 h280 M0 39 h280 M0 40 h280 M0 41 h280 M0 42 h280 M0 43 h280 M0 44 h280 M0 45 h280 M0 46 h280 M0 47 h280 M0 48 h280 M0 49 h280 M0 50 h280 M0 51 h280 M0 52 h280 M0 53 h280 M0 54 h280 M0 55 h280 M0 56 h280 M0 57 h280 M0 58 h280 M0 59 h280 M0 60 h280 M0 61 h280 M0 62 h280 M0 63 h280 M0 64 h280 M0 65 h280 M0 66 h280 M0 67 h280 M0 68 h280 M0 69 h280 M0 70 h280 M0 71 h280 M0 72 h280 M0 73 h280 M0 74 h280 M0 75 h280 M0 76 h280 M0 77 h280 M0 78 h280 M0 79 h280 M0 80 h280 M0 81 h280 M0 82 h280 M0 83 h280 M0 84 h280 M0 85 h280 M0 86 h280 M0 87 h280 M0 88 h280 M0 89 h280 M0 90 h280 M0 91 h280 M0 92 h280 M0 93 h280 M0 94 h280 M0 95 h280 M0 96 h280 M0 97 h280 M0 98 h280 M0 99 h280 M0 100 h280 M0 101 h280 M0 102 h280 M0 103 h280 M0 104 h280 M0 105 h280 M0 106 h280 M0 107 h280 M0 108 h280 M0 109 h280 M0 110 h280 M0 111 h280 M0 112 h280 M0 113 h280 M0 114 h280 M0 115 h280 M0 116 h280 M0 117 h280 M0 118 h280 M0 119 h280 M0 120 h280 M0 121 h280 M0 122 h280 M0 123 h280 M0 124 h280 M0 125 h280 M0 126 h280 M0 127 h280 M0 128 h280 M0 129 h280 M0 130 h280 M0 131 h280 M0 132 h280 M0 133 h280 M0 134 h280 M0 135 h280 M0 136 h280 M0 137 h280 M0 138 h280 M0 139 h280 M0 140 h280 M0 141 h280 M0 142 h280 M0 143 h280 M0 144 h280 M0 145 h280 M0 146 h280 M0 147 h280 M0 148 h280 M0 149 h280 M0 150 h280 M0 151 h280 M0 152 h280 M0 153 h280 M0 154 h280 M0 155 h280 M0 156 h280 M0 157 h280 M0 158 h280 M0 159 h280 M0 160 h280 M0 161 h280 M0 162 h280 M0 163 h280 M0 164 h280 M0 165 h280 M0 166 h280 M0 167 h280 M0 168 h280 M0 169 h280 M0 170 h280 M0 171 h280 M0 172 h280 M0 173 h280 M0 174 h280 M0 175 h280 M0 176 h280 M0 177 h280 M0 178 h280 M0 179 h280 M0 180 h280 M0 181 h280 M0 182 h280 M0 183 h280 M0 184 h280 M0 185 h280 M0 186 h280 M0 187 h280 M0 188 h280 M0 189 h280 M0 190 h280 M0 191 h280 M0 192 h280 M0 193 h280 M0 194 h280 M0 195 h280 M0 196 h280 M0 197 h280 M0 198 h280 M0 199 h280 M0 200 h280 M0 201 h280 M0 202 h280 M0 203 h280 M0 204 h280 M0 205 h280 M0 206 h280 M0 207 h280 M0 208 h280 M0 209 h280 M0 210 h280 M0 211 h280 M0 212 h280 M0 213 h280 M0 214 h280 M0 215 h280 M0 216 h280 M0 217 h280 M0 218 h280 M0 219 h280 M0 220 h280 M0 221 h280 M0 222 h280 M0 223 h280 M0 224 h280 M0 225 h280 M0 226 h280 M0 227 h280 M0 228 h280 M0 229 h280 M0 230 h280 M0 231 h280 M0 232 h280 M0 233 h280 M0 234 h280 M0 235 h280 M0 236 h280 M0 237 h280 M0 238 h280 M0 239 h280 M0 240 h280 M0 241 h280 M0 242 h280 M0 243 h280 M0 244 h280 M0 245 h280 M0 246 h280 M0 247 h280 M0 248 h280 M0 249 h280 M0 250 h280 M0 251 h280 M0 252 h280 M0 253 h280 M0 254 h280 M0 255 h280 M0 256 h280 M0 257 h280 M0 258 h280 M0 259 h280 M0 260 h280 M0 261 h280 M0 262 h280 M0 263 h280 M0 264 h280 M0 265 h280 M0 266 h280 M0 267 h280 M0 268 h280 M0 269 h280 M0 270 h280 M0 271 h280 M0 272 h280 M0 273 h280 M0 274 h280 M0 275 h280 M0 276 h280 M0 277 h280 M0 278 h280 M0 279 h280 "/>
</g>
<text class="axis" x="388.00" y="547.00">cell position</text>
<text class="axis" x="10.00" y="122.00" transform="rotate(90 10.00 122.00)">time step</text>
</svg>
